<svg xmlns="http://www.w3.org/2000/svg" viewBox="0 0 320 320" fill="none" stroke="currentColor" stroke-width="1.2" stroke-linecap="round" stroke-linejoin="round">
  <path d="M160 20 C 160 80, 160 160, 160 300" />
  <path d="M160 60 C 120 70, 90 90, 70 130" />
  <path d="M160 60 C 200 70, 230 90, 250 130" />
  <path d="M160 120 C 130 130, 110 150, 100 180" />
  <path d="M160 120 C 190 130, 210 150, 220 180" />
  <path d="M160 180 C 140 190, 130 210, 128 236" />
  <path d="M160 180 C 180 190, 190 210, 192 236" />
  <ellipse cx="70" cy="130" rx="22" ry="12" transform="rotate(-32 70 130)" />
  <ellipse cx="250" cy="130" rx="22" ry="12" transform="rotate(32 250 130)" />
  <ellipse cx="100" cy="180" rx="20" ry="11" transform="rotate(-28 100 180)" />
  <ellipse cx="220" cy="180" rx="20" ry="11" transform="rotate(28 220 180)" />
  <ellipse cx="128" cy="236" rx="18" ry="10" transform="rotate(-20 128 236)" />
  <ellipse cx="192" cy="236" rx="18" ry="10" transform="rotate(20 192 236)" />
  <circle cx="160" cy="90" r="9" />
  <circle cx="160" cy="90" r="3" fill="currentColor" />
  <circle cx="160" cy="150" r="7" />
  <circle cx="160" cy="200" r="6" />
</svg>
